<?xml version="1.0" standalone="no"?>
<!DOCTYPE svg PUBLIC "-//W3C//DTD SVG 20010904//EN"
 "http://www.w3.org/TR/2001/REC-SVG-20010904/DTD/svg10.dtd">
<svg version="1.0" xmlns="http://www.w3.org/2000/svg"
 width="305.000000pt" height="305.000000pt" viewBox="0 0 305.000000 305.000000"
 preserveAspectRatio="xMidYMid meet">
<metadata>
Created by potrace 1.14, written by Peter Selinger 2001-2017
</metadata>
<g transform="translate(0.000000,305.000000) scale(0.100000,-0.100000)"
fill="#000000" stroke="none">
<path d="M1740 2800 c-25 -4 -59 -5 -76 -3 -17 3 -34 1 -38 -5 -4 -6 -20 -7
-43 -1 -55 12 -228 11 -257 -2 -19 -9 -29 -9 -40 0 -10 8 -21 9 -33 3 -10 -5
-29 -7 -43 -5 -14 2 -55 6 -92 10 l-66 5 -44 -41 -43 -40 31 -1 c19 0 38 8 50
21 14 16 25 19 49 14 45 -10 95 -11 143 -1 44 8 44 8 31 -15 -9 -17 -9 -24 0
-27 6 -2 11 -18 11 -35 0 -22 -3 -28 -9 -18 -5 8 -8 -117 -6 -298 2 -297 2
-312 -17 -322 -25 -14 -53 13 -40 38 5 10 6 27 1 38 -4 11 -8 43 -9 70 -1 38
-4 45 -10 30 -5 -11 -9 -37 -9 -57 -1 -21 -5 -38 -11 -38 -5 0 -10 5 -10 11 0
5 -5 7 -10 4 -6 -4 -10 -27 -8 -52 2 -25 -2 -48 -7 -49 -6 -3 -9 14 -6 42 2
33 -3 58 -18 87 -17 33 -24 78 -35 207 l-14 165 0 -226 c-1 -179 2 -230 13
-246 8 -11 11 -23 8 -27 -10 -10 -63 -7 -63 4 0 6 4 10 10 10 6 0 6 9 0 26 -6
14 -10 53 -11 87 0 34 -4 80 -8 102 -7 32 -9 18 -10 -65 -1 -110 -7 -150 -22
-150 -5 0 -9 10 -10 23 -1 21 -1 21 -8 -3 -6 -21 -8 -22 -14 -7 -3 9 -13 17
-21 17 -17 0 -15 -28 3 -39 7 -5 -14 -11 -51 -15 -57 -7 -67 -11 -104 -51 -61
-63 -74 -112 -76 -284 -1 -80 -3 -126 -5 -102 l-4 44 -91 -5 c-59 -4 -95 -11
-104 -20 -10 -10 -16 -48 -20 -119 -6 -92 -5 -102 8 -85 14 18 20 18 96 6 66
-10 85 -10 97 0 8 7 15 9 16 4 0 -5 4 0 9 11 6 13 9 -9 9 -65 l0 -85 -20 53
c-17 44 -23 51 -35 41 -8 -6 -14 -19 -14 -29 0 -22 -15 -34 -65 -51 -22 -7
-48 -20 -57 -27 -16 -13 -18 -12 -26 9 -5 13 -12 31 -15 39 -12 28 4 -155 19
-215 21 -84 29 -90 121 -86 83 3 88 5 96 36 3 11 5 -41 6 -116 0 -75 4 -170 7
-212 5 -55 4 -77 -5 -77 -6 0 -11 14 -11 32 l0 32 -47 -44 -46 -45 31 40 c45
56 40 78 -5 28 l-38 -40 -99 -6 c-56 -3 -103 -11 -110 -17 -8 -10 -3 -11 24
-7 19 3 44 1 55 -4 14 -6 3 -8 -40 -7 -115 4 -235 -79 -235 -161 0 -15 11 -8
50 34 60 63 110 77 131 39 9 -18 24 -24 75 -30 35 -3 74 -4 87 -2 20 4 22 1
19 -27 -3 -27 1 -35 30 -53 l33 -22 -180 0 c-202 0 -204 -1 -269 -78 -39 -47
-45 -43 -21 15 8 19 15 39 15 43 0 14 -50 21 -70 10 -15 -8 -20 -6 -25 10 -5
17 -51 50 -70 50 -3 0 -5 -97 -5 -215 l0 -215 228 0 229 0 33 36 c50 55 110
78 183 69 69 -7 118 -30 162 -73 29 -28 35 -30 108 -29 72 1 78 2 83 23 3 13
12 28 20 35 11 9 14 7 14 -12 0 -13 4 -31 10 -39 8 -12 10 -12 16 3 4 12 14
16 34 12 23 -4 29 -1 34 20 9 34 22 31 36 -7 9 -24 14 -28 17 -16 4 18 43 21
54 5 4 -5 10 6 14 24 13 57 45 67 45 14 0 -19 5 -35 10 -35 6 0 10 7 10 16 0
10 5 12 13 7 26 -16 47 -13 47 6 0 27 30 55 43 42 6 -6 11 -21 13 -33 1 -13 3
-27 3 -33 1 -5 6 -3 11 7 6 9 18 14 29 11 14 -3 23 3 33 23 7 15 19 29 25 32
13 4 17 -3 28 -52 3 -17 9 -25 13 -19 4 5 17 9 29 8 17 -1 24 5 29 27 12 56
54 45 54 -14 0 -25 3 -28 32 -25 24 2 34 8 36 22 10 50 52 62 52 16 0 -32 7
-40 41 -46 15 -3 23 3 31 25 5 17 14 30 19 30 5 0 12 0 17 0 4 1 9 -16 12 -36
4 -31 9 -37 30 -40 19 -2 30 5 42 27 21 36 37 38 30 3 -3 -19 -1 -25 7 -20 6
4 11 2 11 -3 0 -6 15 -11 33 -11 25 0 39 7 56 30 25 35 93 80 118 80 14 -1 12
-5 -9 -23 -34 -28 -35 -37 -5 -30 l22 6 -24 -26 c-31 -34 -23 -42 25 -25 29
10 38 10 41 1 3 -7 11 -13 19 -13 9 0 12 5 9 10 -3 6 5 14 18 19 38 15 41 30
11 41 -27 11 -53 37 -54 54 0 5 27 6 60 3 72 -6 110 -31 135 -86 l18 -41 254
0 253 0 0 228 0 227 -67 -6 c-38 -3 -76 -9 -86 -14 -20 -8 -40 -45 -51 -88 -5
-22 -10 -26 -20 -18 -7 6 -16 8 -19 5 -3 -4 -11 5 -18 18 -6 15 -31 35 -60 48
-46 22 -56 23 -211 17 -159 -6 -162 -5 -139 12 20 15 23 24 18 50 l-6 31 52 0
c59 0 137 31 137 55 0 18 3 18 52 5 20 -6 50 -24 66 -41 17 -17 36 -29 42 -27
22 7 -36 63 -98 96 -57 30 -61 31 -94 18 -21 -9 -46 -12 -68 -7 -56 11 -47 28
16 27 31 -1 58 2 60 6 7 11 -96 38 -147 38 -28 0 -49 -5 -52 -12 -4 -8 -23 5
-51 35 -34 36 -46 43 -46 30 0 -11 6 -25 13 -32 9 -11 7 -10 -10 0 -22 13 -23
19 -23 174 l0 160 92 0 c91 0 93 1 106 27 7 15 18 67 24 115 6 48 17 95 23
103 23 29 25 49 5 60 -17 9 -20 7 -20 -9 0 -11 -4 -23 -10 -26 -5 -3 -10 0
-10 8 0 8 -12 18 -27 23 -21 5 -24 8 -10 11 9 3 17 11 17 20 0 9 -6 13 -15 10
-8 -4 -17 -3 -19 2 -3 4 -30 14 -61 21 -61 15 -73 30 -22 30 17 0 52 6 77 14
40 12 46 18 56 52 7 25 13 33 17 24 8 -21 6 60 -2 90 -10 35 -44 49 -134 51
l-77 2 0 92 c0 142 -32 211 -120 259 -31 17 -63 26 -93 26 -45 0 -45 0 -34 25
8 16 20 25 35 25 37 0 117 -46 151 -87 32 -37 32 -38 16 -6 -8 18 -31 44 -50
58 -36 28 -138 60 -161 51 -11 -4 -14 9 -15 62 -1 37 -3 59 -6 49 -2 -9 -9
-15 -14 -12 -13 9 -11 -9 3 -23 9 -9 9 -15 0 -24 -7 -7 -12 -30 -13 -52 -1
-66 -17 -13 -20 64 l-2 65 -7 -72 c-9 -81 -14 -93 -39 -93 -23 0 -30 52 -33
225 l-1 120 -7 -130 c-4 -83 -11 -138 -20 -152 -12 -18 -12 -24 0 -37 16 -20
12 -25 -28 -30 -27 -3 -30 -1 -22 15 13 23 13 62 0 54 -6 -4 -11 6 -11 22 -1
21 -3 23 -6 8 -3 -11 -13 -25 -22 -32 -13 -10 -14 -15 -3 -32 15 -26 15 -31
-2 -31 -8 0 -16 15 -19 38 -3 20 -8 51 -12 67 -4 17 -10 113 -14 215 l-7 185
-4 -220 c-2 -149 -6 -199 -10 -155 -6 64 -7 65 -9 15 -1 -36 -4 -46 -11 -34
-9 15 -8 48 4 219 4 49 3 77 -2 66 -6 -15 -11 -16 -16 -7 -9 14 2 101 12 101
4 0 7 17 6 38 -4 150 -24 46 -37 -197 -12 -211 -12 -214 -34 -216 -14 -1 -23
4 -23 12 0 8 5 11 11 7 13 -7 8 46 -6 80 -6 15 -5 17 5 11 10 -6 12 9 8 79 -4
75 -7 89 -26 102 -29 20 -29 68 -1 87 17 12 20 23 17 68 -2 40 -7 55 -19 57
-24 4 -40 -132 -38 -313 0 -82 0 -159 -1 -170 -4 -35 -18 68 -19 139 -1 38 -4
67 -7 64 -3 -4 -5 -56 -5 -118 1 -87 -2 -115 -14 -126 -13 -14 -15 -14 -15 0
0 8 -6 19 -14 23 -7 4 -16 15 -19 23 -3 9 -6 3 -6 -13 -1 -42 -25 -28 -29 16
-3 37 -16 49 -25 25 -3 -7 -6 -2 -7 12 -2 23 -3 23 -9 -5 -4 -17 -13 -29 -20
-27 -7 1 -10 -1 -8 -5 2 -5 1 -17 -4 -28 -5 -14 -8 -2 -8 38 -1 32 2 56 7 54
4 -3 7 9 7 26 -1 18 3 35 8 38 11 8 -3 60 -14 53 -12 -7 -11 27 2 66 9 24 9
58 -1 136 -11 93 -10 107 4 129 18 27 24 29 46 15 11 -7 15 -26 13 -79 -1 -50
2 -73 13 -82 16 -13 19 -49 4 -49 -6 0 -10 -27 -10 -62 l0 -61 25 23 c23 22
24 27 18 104 -3 44 -12 95 -20 113 -11 24 -12 36 -3 52 6 12 10 29 8 39 -2 13
5 18 30 20 17 2 32 -1 32 -7 0 -6 7 -8 15 -4 9 3 21 -1 28 -10 14 -18 53 -27
50 -12 -1 6 12 18 28 28 26 15 29 15 27 1 -2 -9 8 -23 21 -32 24 -16 24 -16
18 10 -9 35 7 44 32 19 14 -14 21 -16 24 -6 4 8 15 11 32 7 15 -2 37 1 50 8
20 11 30 9 67 -9 48 -23 73 -26 83 -12 7 12 -18 37 -53 55 -30 15 -75 17 -142
6z m-213 -582 c-3 -7 -5 -2 -5 12 0 14 2 19 5 13 2 -7 2 -19 0 -25z m-351
-165 c-10 -10 -19 5 -10 18 6 11 8 11 12 0 2 -7 1 -15 -2 -18z m649 -3 c4 -6
-6 -10 -22 -9 -25 0 -26 1 -8 9 11 5 21 9 22 9 1 1 5 -3 8 -9z m78 -7 c-7 -2
-19 -2 -25 0 -7 3 -2 5 12 5 14 0 19 -2 13 -5z m-1090 -154 c-29 -38 -39 -46
-42 -33 -2 11 11 31 33 51 50 46 53 41 9 -18z m1377 9 c0 -17 -4 -27 -10 -23
-5 3 -10 11 -10 17 0 6 -8 16 -17 23 -15 11 -14 13 10 13 23 0 27 -5 27 -30z
m-1453 -60 c-3 -8 -6 -5 -6 6 -1 11 2 17 5 13 3 -3 4 -12 1 -19z m133 -3 c0
-3 -7 -16 -16 -30 -12 -19 -13 -31 -4 -63 6 -22 16 -43 23 -45 6 -3 2 -6 -9
-6 -27 -1 -34 16 -34 84 0 49 6 61 33 64 4 1 7 -1 7 -4z m383 -12 c-7 -2 -19
-2 -25 0 -7 3 -2 5 12 5 14 0 19 -2 13 -5z m857 -8 c0 -8 -4 -15 -9 -15 -13 0
-22 16 -14 24 11 11 23 6 23 -9z m-1142 -19 c-10 -7 -18 -16 -18 -19 0 -8 44
5 51 16 11 16 29 -2 29 -29 0 -17 -4 -23 -12 -18 -16 10 -78 12 -78 2 0 -4 -4
-8 -10 -8 -19 0 -10 39 12 54 27 19 50 21 26 2z m234 -8 c-7 -7 -12 -16 -12
-22 0 -6 5 -5 11 1 6 6 17 9 24 7 7 -3 16 -1 20 5 11 18 25 12 25 -10 0 -18
-4 -20 -25 -15 -14 4 -25 3 -25 -2 0 -5 -13 -9 -30 -9 -16 0 -30 2 -30 3 0 19
23 54 37 54 13 0 14 -3 5 -12z m242 -3 c-7 -18 26 -21 43 -4 13 13 33 4 33
-17 0 -16 1 -16 -62 -18 -38 -2 -48 1 -48 14 0 17 18 40 32 40 4 0 5 -7 2 -15z
m236 -5 c0 -14 34 -12 48 2 10 10 15 10 22 -2 16 -25 5 -35 -33 -34 -50 2 -68
10 -61 29 7 17 24 21 24 5z m246 -6 c-5 -12 -1 -14 17 -8 12 3 27 10 33 15 13
11 24 1 24 -21 0 -13 -11 -17 -50 -18 -51 -1 -63 11 -38 36 16 16 21 15 14 -4z
m-1032 -45 c-3 -5 2 -9 10 -9 9 0 16 -7 16 -16 0 -13 -3 -13 -29 2 -19 11 -28
24 -27 40 1 21 2 21 18 7 10 -9 15 -20 12 -24z m515 -143 c1 -39 4 -47 13 -38
7 7 17 12 22 12 6 0 5 -5 -2 -12 -7 -7 -12 -15 -12 -19 0 -9 41 1 58 14 10 8
16 7 22 -3 17 -27 0 -39 -51 -36 l-49 4 0 -94 c0 -115 -1 -110 24 -106 17 3
18 2 7 -11 -11 -14 -8 -15 24 -6 20 6 39 8 42 5 11 -11 -8 -37 -24 -34 -10 1
-24 -1 -32 -6 -8 -5 -16 -4 -22 5 -10 17 -17 1 -21 -51 -4 -45 -23 -41 -22 5
0 19 1 131 3 248 1 129 6 204 11 192 5 -11 9 -42 9 -69z m-502 -33 c-14 -16
-36 -50 -47 -76 -12 -27 -24 -46 -27 -44 -6 7 43 106 64 130 9 9 21 17 26 17
6 0 -1 -12 -16 -27z m1183 -74 c0 -5 -7 -9 -15 -9 -17 0 -35 30 -35 57 1 15 5
13 25 -10 14 -15 25 -32 25 -38z m-1160 47 c0 -2 -8 -10 -17 -17 -16 -13 -17
-12 -4 4 13 16 21 21 21 13z m100 -33 c0 -13 -50 -56 -57 -49 -4 3 4 17 17 31
23 25 40 32 40 18z m1227 -85 c-3 -8 -6 -5 -6 6 -1 11 2 17 5 13 3 -3 4 -12 1
-19z m-179 -469 c2 -24 -1 -62 -7 -84 -9 -39 -9 -38 -10 25 -1 36 -4 76 -8 89
-4 18 -2 23 8 19 9 -3 15 -22 17 -49z m-1153 -1 c-3 -18 -7 -68 -11 -111 -3
-43 -8 -76 -11 -73 -8 8 -22 186 -16 203 3 7 13 13 23 13 15 0 18 -6 15 -32z
m191 -81 c6 -104 -11 -119 -21 -19 -9 83 -19 102 -51 102 -14 0 -23 4 -19 10
4 6 9 9 13 6 4 -2 16 0 27 4 34 13 45 -10 51 -103z m172 91 c8 -8 12 -45 11
-107 -1 -101 -7 -93 -26 39 -6 44 -13 57 -33 67 l-25 13 31 0 c16 0 35 -5 42
-12z m195 -2 c3 -8 3 -24 0 -35 -4 -15 1 -27 13 -36 11 -8 14 -14 7 -15 -8 0
-13 -15 -13 -40 0 -60 -17 -48 -24 18 -11 92 -16 111 -34 115 -9 3 -3 5 14 6
19 1 34 -5 37 -13z m562 -5 c8 -25 4 -127 -5 -142 -9 -14 -30 76 -30 126 0 38
24 49 35 16z m-374 -47 l5 -49 5 40 6 40 1 -47 c1 -27 -2 -48 -7 -48 -5 0 -13
-10 -17 -22 -7 -19 -9 -14 -15 27 -4 28 -8 65 -8 83 -2 53 23 33 30 -24z m180
-12 l6 -57 2 47 c0 26 6 50 11 53 6 4 10 -11 9 -37 -1 -45 -15 -104 -19 -78
-1 8 -6 2 -9 -15 -6 -24 -9 -13 -17 55 -6 47 -8 89 -6 93 8 17 17 -6 23 -61z
m-714 -24 c-2 -13 -4 -3 -4 22 0 25 2 35 4 23 2 -13 2 -33 0 -45z m373 46 c0
-8 -4 -12 -10 -9 -5 3 -10 10 -10 16 0 5 5 9 10 9 6 0 10 -7 10 -16z m-560
-31 c0 -23 -4 -33 -9 -27 -9 8 -4 64 5 64 2 0 4 -17 4 -37z m380 33 c0 -3 -4
-8 -10 -11 -5 -3 -10 -1 -10 4 0 6 5 11 10 11 6 0 10 -2 10 -4z m907 -248 c-3
-8 -6 -5 -6 6 -1 11 2 17 5 13 3 -3 4 -12 1 -19z m-892 -8 c3 -5 1 -10 -4 -10
-6 0 -11 5 -11 10 0 6 2 10 4 10 3 0 8 -4 11 -10z m185 0 c0 -5 -2 -10 -4 -10
-3 0 -8 5 -11 10 -3 6 -1 10 4 10 6 0 11 -4 11 -10z m115 0 c3 -5 -1 -10 -10
-10 -9 0 -13 5 -10 10 3 6 8 10 10 10 2 0 7 -4 10 -10z m65 0 c0 -5 -2 -10 -4
-10 -3 0 -8 5 -11 10 -3 6 -1 10 4 10 6 0 11 -4 11 -10z m120 0 c0 -5 -5 -10
-11 -10 -5 0 -7 5 -4 10 3 6 8 10 11 10 2 0 4 -4 4 -10z m70 0 c0 -5 -4 -10
-10 -10 -5 0 -10 5 -10 10 0 6 5 10 10 10 6 0 10 -4 10 -10z m115 0 c3 -5 -1
-10 -10 -10 -9 0 -13 5 -10 10 3 6 8 10 10 10 2 0 7 -4 10 -10z m-1035 -10 c0
-5 -4 -10 -10 -10 -5 0 -10 5 -10 10 0 6 5 10 10 10 6 0 10 -4 10 -10z m109
-4 c-9 -7 -100 -13 -92 -6 4 5 26 10 48 12 40 3 52 1 44 -6z m191 4 c0 -5 -4
-10 -10 -10 -5 0 -10 5 -10 10 0 6 5 10 10 10 6 0 10 -4 10 -10z m-563 -52
c-3 -8 -6 -5 -6 6 -1 11 2 17 5 13 3 -3 4 -12 1 -19z m-24 -34 c6 -38 5 -42
-40 -79 l-46 -38 6 29 c9 51 33 104 53 118 10 8 19 14 20 13 1 -1 4 -20 7 -43z
m135 34 c20 -20 15 -47 -8 -41 -25 7 -34 19 -26 38 7 18 18 19 34 3z m1499
-22 c-5 -13 -39 -8 -49 7 -14 22 -8 26 22 15 17 -5 29 -15 27 -22z m-134 5 c3
-14 -1 -18 -19 -18 -13 0 -24 2 -24 5 0 4 30 30 36 32 1 0 4 -8 7 -19z m101
-31 c10 0 55 -53 55 -65 0 -5 -4 -2 -10 8 -6 10 -28 29 -50 42 -21 14 -39 30
-39 37 0 6 8 4 18 -5 10 -10 22 -17 26 -17z m-44 -100 c-11 -20 -30 -28 -30
-12 0 11 22 32 32 32 5 0 4 -9 -2 -20z m-70 -10 c0 -5 -4 -10 -9 -10 -6 0 -13
5 -16 10 -3 6 1 10 9 10 9 0 16 -4 16 -10z m-1352 -22 c-5 -15 -68 -24 -68 -9
0 10 21 18 53 20 11 1 17 -4 15 -11z m1956 -159 c-3 -5 -15 2 -26 17 -17 21
-18 28 -8 34 15 9 44 -35 34 -51z m-74 41 c13 -9 13 -10 0 -10 -8 0 -22 5 -30
10 -13 9 -13 10 0 10 8 0 22 -5 30 -10z m-2344 -19 c-3 -5 4 -12 17 -16 21 -7
21 -7 2 -12 -11 -2 -46 -14 -78 -25 -62 -21 -78 -19 -56 8 23 28 130 70 115
45z m-176 -42 c0 -6 -4 -7 -10 -4 -5 3 -10 11 -10 16 0 6 5 7 10 4 6 -3 10
-11 10 -16z m760 -149 c-16 -11 -40 -13 -40 -5 0 8 44 24 50 18 2 -2 -2 -8
-10 -13z"/>
<path d="M963 2545 c0 -22 2 -30 4 -17 2 12 2 30 0 40 -3 9 -5 -1 -4 -23z"/>
<path d="M1244 2385 c0 -77 2 -107 3 -67 2 40 2 103 0 140 -2 37 -3 4 -3 -73z"/>
<path d="M1003 2355 c0 -27 2 -38 4 -22 2 15 2 37 0 50 -2 12 -4 0 -4 -28z"/>
<path d="M1405 2378 c-4 -10 -13 -18 -21 -18 -8 0 -14 -7 -14 -15 0 -8 4 -15
8 -15 16 0 44 38 39 52 -3 9 -7 8 -12 -4z"/>
<path d="M954 2257 c-2 -7 0 -24 5 -38 9 -22 10 -21 10 14 1 37 -5 48 -15 24z"/>
<path d="M2470 1418 c0 -14 7 -28 15 -32 19 -7 19 13 0 38 -14 19 -15 19 -15
-6z"/>
<path d="M440 1310 c0 -14 5 -32 10 -40 8 -12 10 -10 10 10 0 14 -5 32 -10 40
-8 12 -10 10 -10 -10z"/>
<path d="M678 68 c14 -14 16 -32 3 -24 -10 7 -112 -22 -125 -35 -6 -5 28 -9
87 -9 53 0 97 3 97 6 0 4 -8 13 -17 20 -10 7 -13 14 -7 14 6 0 23 -9 38 -21
15 -12 37 -19 53 -17 28 3 27 4 -21 41 -35 27 -59 37 -84 37 -28 0 -33 -3 -24
-12z"/>
<path d="M510 15 c-7 -8 -8 -15 -2 -15 5 0 15 7 22 15 7 8 8 15 2 15 -5 0 -15
-7 -22 -15z"/>
<path d="M2185 10 c-3 -5 1 -10 9 -10 9 0 16 5 16 10 0 6 -4 10 -9 10 -6 0
-13 -4 -16 -10z"/>
<path d="M2485 10 c3 -5 13 -10 21 -10 8 0 12 4 9 10 -3 5 -13 10 -21 10 -8 0
-12 -4 -9 -10z"/>
</g>
</svg>
